<svg version="1.1" xmlns="http://www.w3.org/2000/svg" xmlns:xlink="http://www.w3.org/1999/xlink" viewBox="0 0 172 172"><g fill="none" fill-rule="nonzero" stroke="none" stroke-width="1" stroke-linecap="butt" stroke-linejoin="miter" stroke-miterlimit="10" stroke-dasharray="" stroke-dashoffset="0" font-family="none" font-weight="none" font-size="none" text-anchor="none" style="mix-blend-mode: normal"><path d="M0,172v-172h172v172z" fill="none"></path><g fill="#afafaf"><path d="M27.1975,3.3325c-0.14781,0.02688 -0.29562,0.06719 -0.43,0.1075c-1.59906,0.36281 -2.72781,1.80063 -2.6875,3.44v34.4h34.4c1.23625,0.01344 2.39188,-0.63156 3.02344,-1.70656c0.61813,-1.075 0.61813,-2.39187 0,-3.46687c-0.63156,-1.075 -1.78719,-1.72 -3.02344,-1.70656h-22.8975c12.94031,-12.71187 30.70469,-20.64 50.4175,-20.64c40.12438,0 72.24,32.11563 72.24,72.24c0,40.12438 -32.11562,72.24 -72.24,72.24c-40.12437,0 -72.24,-32.11562 -72.24,-72.24c0,-11.81156 2.91594,-23.36781 7.8475,-33.2175l-6.1275,-3.1175c-5.38844,10.79031 -8.6,23.38125 -8.6,36.335c0,43.80625 35.31375,79.12 79.12,79.12c43.80625,0 79.12,-35.31375 79.12,-79.12c0,-43.80625 -35.31375,-79.12 -79.12,-79.12c-21.40594,0 -40.87687,8.58656 -55.04,22.36v-22.36c0.04031,-0.99437 -0.36281,-1.94844 -1.075,-2.62031c-0.72562,-0.68531 -1.70656,-1.02125 -2.6875,-0.92719zM82.56,30.96v49.1275c-2.05594,1.19594 -3.44,3.37281 -3.44,5.9125c0,0.59125 0.06719,1.16906 0.215,1.72l-23.3275,23.3275l4.945,4.945l23.3275,-23.3275c0.55094,0.14781 1.12875,0.215 1.72,0.215c3.80281,0 6.88,-3.07719 6.88,-6.88c0,-2.53969 -1.38406,-4.71656 -3.44,-5.9125v-49.1275z"></path></g></g></svg>